<?xml version="1.0" standalone="no"?>
<!DOCTYPE svg PUBLIC "-//W3C//DTD SVG 20010904//EN"
 "http://www.w3.org/TR/2001/REC-SVG-20010904/DTD/svg10.dtd">
<svg version="1.0" xmlns="http://www.w3.org/2000/svg"
 width="2048.000000pt" height="1676.000000pt" viewBox="0 0 2048.000000 1676.000000"
 preserveAspectRatio="xMidYMid meet">
<metadata>
Created by potrace 1.16, written by Peter Selinger 2001-2019
</metadata>
<g transform="translate(0.000000,1676.000000) scale(0.100000,-0.100000)"
fill="#ffffff" stroke="none">
<path d="M7905 15990 c-505 -26 -891 -54 -1585 -115 -820 -71 -967 -77 -1820
-64 -292 4 -346 -1 -509 -53 -89 -28 -174 -69 -266 -126 -66 -41 -198 -181
-249 -265 -85 -137 -123 -251 -152 -458 -38 -264 13 -683 120 -1009 l25 -75
-29 -45 c-191 -298 -211 -917 -64 -2050 14 -107 27 -213 29 -235 5 -37 29
-219 75 -565 107 -794 124 -1319 49 -1486 -10 -23 -66 -89 -131 -155 -270
-271 -593 -788 -973 -1555 -124 -250 -133 -282 -89 -310 47 -31 70 -12 136
116 149 287 289 546 351 648 32 51 57 95 57 98 0 3 30 53 66 112 254 407 401
604 593 792 156 153 187 219 210 449 33 319 1 786 -129 1911 -11 91 -34 316
-52 500 -29 312 -32 363 -32 740 -1 421 2 464 45 640 30 120 60 182 119 244
70 74 72 98 27 251 -20 66 -41 139 -47 163 -5 23 -15 61 -21 84 -48 193 -75
486 -59 635 26 239 86 390 205 508 123 122 273 183 510 205 113 11 162 10 360
-5 287 -22 814 -16 1210 14 143 11 359 27 480 36 121 8 294 22 385 30 91 8
242 19 335 25 94 6 260 18 370 26 269 21 1217 31 1420 15 720 -55 1110 -214
1213 -493 46 -124 78 -630 52 -823 -29 -210 -80 -298 -214 -363 -126 -62 -186
-122 -207 -207 -7 -28 -14 -51 -15 -53 0 -1 -46 13 -100 32 -338 116 -834 225
-1279 280 -348 44 -670 59 -1110 53 -443 -6 -604 -16 -930 -57 -816 -103
-1473 -295 -1845 -541 -127 -84 -217 -175 -261 -264 -30 -62 -34 -79 -34 -150
0 -64 5 -90 25 -130 91 -187 317 -276 740 -291 345 -13 847 39 1755 182 218
34 290 45 640 103 173 28 370 58 670 101 495 71 960 91 1161 52 116 -23 157
-39 202 -76 49 -42 44 -75 -20 -139 -70 -69 -138 -113 -305 -196 -163 -81
-194 -96 -333 -151 -301 -121 -669 -251 -1515 -535 -427 -143 -878 -304 -1036
-370 -35 -14 -86 -34 -114 -44 -102 -38 -382 -164 -504 -227 -256 -134 -436
-277 -497 -394 -24 -46 -29 -67 -29 -130 0 -64 4 -82 29 -128 136 -245 512
-306 1146 -186 278 53 644 146 1000 254 295 89 791 243 1025 317 99 31 354
105 500 145 747 204 1150 208 1147 10 -1 -71 -66 -199 -171 -337 -167 -220
-504 -561 -951 -965 -52 -47 -148 -134 -215 -195 -66 -60 -161 -146 -210 -190
-579 -520 -952 -879 -1205 -1161 -64 -70 -212 -257 -249 -314 -20 -30 -39 -57
-42 -60 -13 -11 -97 -178 -118 -234 -31 -83 -38 -196 -17 -268 98 -338 619
-312 1596 79 187 75 343 139 391 162 24 11 100 44 169 74 69 31 213 96 320
145 258 119 500 234 1015 482 566 273 1053 498 1235 570 156 62 214 84 307
115 174 59 322 82 351 53 17 -17 15 -48 -8 -136 -49 -192 -217 -515 -585
-1122 -62 -102 -121 -201 -132 -220 -11 -19 -57 -96 -103 -170 -275 -445 -567
-977 -694 -1262 -68 -152 -76 -172 -127 -318 -67 -192 -89 -413 -53 -523 31
-94 101 -168 195 -204 69 -26 235 -23 319 7 312 110 664 440 1165 1090 49 63
216 291 372 505 156 215 311 428 345 475 35 47 94 128 132 180 309 423 566
687 689 707 49 8 79 -25 106 -112 35 -114 44 -198 38 -380 -7 -248 -48 -440
-174 -815 -54 -162 -73 -211 -207 -554 -184 -465 -225 -662 -165 -782 43 -88
119 -120 266 -111 104 6 200 41 308 112 115 76 285 264 550 610 297 386 511
607 755 781 533 379 1166 473 1960 294 73 -17 140 -28 147 -26 7 3 13 14 13
25 0 23 -13 27 -215 72 -472 103 -939 100 -1320 -10 -158 -45 -354 -130 -478
-207 -71 -45 -152 -98 -157 -104 -3 -3 -41 -32 -85 -65 -153 -115 -423 -397
-605 -631 -407 -526 -510 -636 -678 -722 -97 -50 -165 -66 -256 -60 -116 8
-156 49 -156 162 0 60 27 189 61 289 28 82 146 391 170 444 10 23 19 45 19 48
0 3 9 25 19 48 77 168 217 587 265 788 102 434 69 881 -73 975 -105 69 -228
22 -413 -158 -152 -148 -393 -448 -679 -844 -24 -34 -107 -148 -184 -254 -77
-105 -154 -211 -171 -234 -105 -148 -381 -505 -499 -645 -38 -47 -94 -113
-123 -148 -87 -105 -351 -366 -444 -440 -189 -149 -331 -216 -463 -217 -162
-2 -244 74 -253 234 -5 92 16 211 65 360 37 112 40 120 98 247 22 49 34 87 30
95 -5 7 -5 10 0 6 4 -4 49 74 100 175 50 100 106 209 125 242 169 304 351 614
630 1070 80 132 182 301 225 375 43 74 86 147 96 162 11 15 19 29 19 32 0 2
21 40 46 83 58 97 203 386 239 473 64 159 80 291 45 360 -41 80 -117 101 -266
76 -179 -30 -610 -191 -969 -360 -27 -13 -111 -52 -185 -87 -74 -34 -187 -87
-250 -117 -63 -30 -151 -71 -195 -92 -44 -21 -136 -65 -205 -98 -69 -32 -170
-81 -225 -107 -55 -26 -169 -81 -254 -121 -84 -41 -155 -74 -156 -74 -2 0 -61
-27 -132 -61 -70 -33 -148 -70 -173 -81 -25 -11 -119 -54 -210 -95 -91 -41
-179 -81 -195 -88 -304 -138 -727 -303 -995 -389 -294 -95 -493 -136 -660
-136 -222 0 -309 63 -298 217 14 190 221 484 638 908 211 214 454 446 715 680
49 44 141 127 205 185 125 114 143 130 300 271 58 51 125 113 150 136 25 23
56 51 70 63 179 154 702 673 811 805 40 50 76 92 79 95 48 47 158 225 195 315
38 93 41 208 8 272 -33 61 -96 107 -188 138 -79 27 -83 27 -270 22 -145 -4
-222 -11 -327 -31 -287 -55 -662 -155 -1183 -316 -93 -29 -210 -66 -260 -81
-49 -15 -127 -39 -172 -53 -383 -119 -642 -195 -868 -255 -66 -17 -145 -38
-175 -46 -188 -50 -521 -114 -680 -129 -375 -37 -614 18 -682 159 -19 38 -20
49 -10 83 40 133 271 292 699 482 346 154 724 292 1618 592 787 264 1119 384
1420 513 373 160 591 311 638 441 23 65 22 99 -7 160 -81 175 -350 242 -864
215 -361 -18 -754 -69 -1597 -207 -435 -71 -1054 -164 -1195 -179 -30 -3 -131
-15 -225 -26 -432 -49 -868 -46 -1065 7 -169 45 -260 123 -260 221 0 189 403
432 992 599 377 106 743 173 1237 226 296 32 297 32 856 32 460 0 587 -3 710
-17 83 -9 200 -21 260 -28 61 -6 202 -26 315 -44 391 -64 614 -118 1000 -241
l46 -14 18 -108 c10 -59 33 -164 51 -233 84 -314 185 -496 310 -558 78 -39
124 -38 226 3 35 15 149 -209 204 -400 43 -148 65 -332 49 -411 -5 -25 -15
-34 -60 -53 -66 -27 -126 -92 -144 -155 -36 -127 29 -319 185 -550 90 -133
131 -183 239 -290 158 -158 276 -225 391 -224 73 1 111 14 159 55 33 29 40 31
76 23 231 -52 726 -372 980 -633 l45 -47 0 -102 c0 -98 2 -105 39 -182 126
-262 467 -644 661 -742 92 -47 195 -48 258 -2 22 16 37 19 65 14 153 -28 441
-162 574 -267 37 -29 38 -30 32 -83 -10 -83 1 -117 54 -172 113 -118 374 -239
877 -408 377 -126 882 -256 1045 -269 41 -3 284 -11 540 -16 535 -12 652 -18
1115 -61 448 -42 894 -151 1184 -290 439 -210 656 -509 678 -935 14 -280 -77
-543 -283 -820 -95 -128 -294 -331 -403 -412 -20 -15 -38 -29 -41 -32 -3 -3
-29 -23 -57 -44 -46 -33 -53 -42 -53 -71 0 -35 28 -65 60 -65 20 0 141 84 230
158 361 302 587 632 671 980 62 259 27 561 -95 807 -265 536 -931 829 -2141
944 -169 16 -405 29 -950 51 -484 20 -504 22 -625 51 -69 16 -154 38 -190 48
-36 11 -130 38 -210 61 -410 118 -805 267 -1045 393 -109 57 -117 65 -104 108
9 29 8 47 -5 93 -14 49 -28 69 -86 126 -119 118 -349 245 -586 326 -178 61
-273 69 -347 31 l-48 -25 -58 44 c-86 64 -236 225 -332 355 -92 125 -100 138
-139 219 -26 52 -26 55 -10 85 53 93 0 207 -175 379 -206 202 -514 425 -768
555 -186 96 -277 124 -392 125 -90 0 -132 -13 -206 -66 -42 -29 -278 205 -399
397 -66 104 -141 260 -128 269 1 1 23 14 48 28 146 84 197 266 155 551 -54
366 -219 721 -385 827 -68 43 -129 54 -202 35 -74 -19 -72 -20 -124 112 -30
77 -94 298 -94 325 0 21 27 10 271 -112 657 -330 1142 -780 1484 -1377 59
-103 76 -118 94 -86 7 13 -2 40 -36 108 -47 93 -170 296 -226 373 -385 528
-870 911 -1539 1216 l-78 35 0 43 0 43 78 39 c149 76 272 232 317 403 64 241
69 591 15 966 -24 158 -50 234 -121 342 -194 297 -601 468 -1278 536 -236 24
-834 34 -1126 19z"/>
<path d="M3320 7284 c-358 -28 -666 -91 -865 -179 -372 -164 -759 -571 -1063
-1120 -319 -576 -531 -1265 -609 -1975 -28 -257 -25 -764 6 -1005 67 -525 198
-931 437 -1355 20 -36 41 -66 45 -68 5 -2 9 -8 9 -13 0 -9 77 -127 91 -139 3
-3 16 -21 30 -41 13 -19 44 -61 69 -92 37 -47 50 -57 76 -57 35 0 64 26 64 59
0 12 -24 56 -54 99 -198 284 -363 643 -450 980 -8 31 -22 84 -30 117 -20 78
-62 342 -76 475 -93 915 156 2020 645 2868 78 134 73 125 130 212 197 300 476
585 691 705 188 107 427 166 789 196 172 14 576 6 765 -15 281 -32 318 -37
430 -57 156 -27 427 -86 508 -110 570 -169 897 -336 1075 -549 64 -77 91 -144
91 -230 1 -66 -3 -84 -32 -143 -36 -72 -127 -187 -202 -252 -25 -22 -49 -45
-55 -51 -18 -20 -138 -109 -210 -155 -121 -78 -186 -115 -330 -186 -495 -246
-1056 -435 -1890 -637 -477 -116 -890 -202 -1495 -311 -567 -103 -604 -111
-657 -158 -78 -69 -96 -192 -47 -335 24 -70 129 -285 158 -322 6 -8 20 -31 30
-50 42 -76 300 -436 413 -575 112 -138 214 -259 276 -329 136 -153 163 -184
221 -246 80 -85 395 -401 466 -466 163 -150 345 -286 458 -343 73 -37 97 -37
124 0 31 41 16 69 -54 109 -123 70 -253 185 -519 457 -116 119 -185 196 -416
468 -291 344 -639 830 -792 1110 -64 118 -131 275 -131 309 0 13 107 35 265
55 90 12 736 115 880 141 844 153 1385 280 1945 457 787 248 1349 544 1667
877 224 235 310 454 268 688 -47 268 -268 508 -655 711 -419 220 -1056 390
-1695 452 -162 16 -673 28 -795 19z"/>
<path d="M8115 5076 c-263 -51 -460 -237 -547 -516 -20 -66 -23 -94 -23 -240
1 -211 29 -349 106 -518 16 -35 29 -66 29 -68 0 -3 25 -43 56 -90 170 -258
418 -410 737 -453 43 -6 156 -11 250 -11 197 -1 278 -9 419 -45 164 -41 329
-133 433 -239 179 -183 277 -475 262 -780 -10 -210 -65 -388 -175 -566 -176
-285 -453 -446 -799 -465 -314 -18 -617 72 -869 258 -100 73 -264 243 -327
339 -93 143 -138 240 -187 409 -44 149 -53 237 -47 447 4 157 9 202 30 282 13
52 23 99 20 103 -11 18 -34 -19 -67 -106 -72 -188 -98 -333 -98 -532 2 -545
313 -1052 806 -1316 244 -130 509 -188 806 -176 443 18 804 238 1036 629 161
273 223 596 179 938 -38 307 -150 546 -344 740 -181 180 -385 280 -673 331
-107 19 -157 21 -386 20 -296 -1 -363 7 -495 64 -181 78 -310 211 -400 411
-63 139 -89 244 -102 409 -21 256 138 507 370 586 105 36 279 34 429 -5 60
-15 123 -34 140 -41 17 -7 47 -20 66 -28 19 -9 57 -25 83 -36 72 -31 260 -137
369 -208 54 -35 102 -63 108 -63 23 0 7 21 -47 65 -32 25 -67 54 -78 63 -136
119 -448 303 -595 352 -186 62 -346 81 -475 56z"/>
<path d="M6523 4968 c-32 -16 -75 -132 -204 -557 -184 -610 -336 -1302 -370
-1682 -6 -68 -14 -164 -19 -214 -11 -125 -4 -388 15 -522 37 -266 135 -437
294 -516 58 -28 74 -31 155 -32 107 0 175 21 197 61 19 37 -4 76 -51 85 -19 4
-63 13 -98 20 -156 30 -243 154 -289 414 -17 100 -24 382 -12 540 35 482 182
1259 369 1960 22 83 49 184 60 225 11 41 26 95 34 120 12 39 12 49 0 73 -8 15
-19 27 -23 27 -5 0 -15 2 -23 4 -7 3 -23 0 -35 -6z"/>
<path d="M11776 4945 c-18 -14 -36 -79 -92 -335 -57 -260 -126 -633 -144 -780
-5 -41 -20 -160 -34 -265 -59 -449 -80 -1020 -43 -1175 10 -41 25 -91 35 -110
15 -31 22 -35 59 -38 37 -3 44 0 56 25 32 61 46 248 48 615 l1 207 97 65 c186
125 371 196 511 196 201 0 393 -165 477 -409 37 -106 38 -292 4 -426 -55 -213
-167 -455 -323 -694 -51 -80 -59 -118 -30 -144 45 -41 93 -8 246 168 194 223
339 511 376 750 14 90 14 245 0 326 -53 300 -291 574 -560 644 -104 28 -280
16 -390 -25 -110 -41 -196 -88 -293 -162 -43 -33 -81 -58 -85 -56 -19 8 72
804 154 1348 13 91 27 182 30 203 11 71 -47 112 -100 72z"/>
<path d="M18621 4924 c-21 -27 -109 -285 -198 -584 -75 -253 -84 -288 -157
-585 -128 -522 -178 -806 -217 -1245 -23 -255 3 -578 60 -743 93 -268 293
-395 523 -331 46 13 62 23 74 45 13 26 13 32 -1 59 -9 16 -19 30 -23 30 -4 0
-40 5 -79 10 -134 17 -209 75 -269 205 -79 174 -98 423 -63 870 10 134 60 498
83 615 8 36 17 88 21 115 12 90 98 483 176 805 59 247 67 275 139 540 45 165
47 181 22 203 -28 25 -67 21 -91 -9z"/>
<path d="M7172 4753 c-18 -15 -102 -246 -140 -383 -6 -19 -30 -100 -55 -180
-152 -490 -283 -1061 -347 -1515 -26 -182 -32 -264 -37 -475 -6 -278 3 -412
39 -545 55 -208 147 -332 294 -396 92 -40 257 -25 316 28 46 41 6 97 -75 106
-105 13 -159 36 -210 89 -92 94 -139 244 -157 495 -34 492 125 1446 421 2526
27 98 49 191 49 206 0 53 -57 79 -98 44z"/>
<path d="M10765 3194 c-181 -47 -296 -140 -380 -309 -123 -249 -129 -571 -14
-780 38 -70 56 -92 134 -170 80 -80 159 -131 275 -176 121 -48 229 -64 379
-56 132 7 188 20 287 67 77 37 188 139 200 184 13 53 -42 74 -94 37 -101 -71
-309 -102 -482 -72 -92 17 -215 57 -284 94 -133 71 -240 212 -265 351 -33 177
8 407 95 533 95 138 294 191 512 134 104 -27 138 -27 152 -1 17 32 -3 55 -77
90 -106 49 -196 71 -313 75 -58 2 -114 2 -125 -1z"/>
<path d="M4435 3149 c-251 -34 -498 -155 -674 -330 -166 -166 -268 -344 -328
-572 -25 -93 -27 -118 -27 -287 0 -173 2 -192 28 -290 32 -117 71 -214 117
-292 132 -224 308 -391 527 -498 556 -272 1244 -74 1559 450 206 341 229 794
58 1145 -169 348 -463 577 -845 661 -90 19 -317 27 -415 13z m230 -174 c320
-33 621 -274 744 -595 45 -119 61 -204 61 -331 0 -235 -69 -418 -230 -606
-190 -224 -463 -344 -745 -329 -354 18 -644 209 -796 521 -144 298 -120 641
66 935 15 25 71 88 124 140 170 169 346 249 601 274 36 3 69 1 175 -9z"/>
<path d="M4452 2550 c-49 -10 -140 -51 -192 -86 -164 -111 -272 -330 -256
-519 21 -254 196 -467 436 -530 71 -19 210 -19 280 0 196 52 350 198 416 395
26 77 26 263 0 340 -56 168 -172 297 -333 373 -63 29 -77 31 -188 34 -66 1
-139 -2 -163 -7z m212 -276 c115 -29 203 -103 254 -212 23 -49 27 -70 27 -152
0 -82 -4 -103 -27 -152 -110 -236 -402 -302 -606 -138 -44 35 -66 63 -97 124
-38 75 -40 83 -40 171 1 83 4 98 33 157 53 107 118 166 220 199 71 22 156 24
236 3z"/>
<path d="M14088 3140 c-84 -14 -223 -59 -311 -99 -122 -56 -229 -131 -327
-230 -164 -166 -253 -321 -317 -556 -26 -92 -28 -114 -28 -280 1 -164 3 -189
28 -285 85 -321 286 -583 573 -752 153 -89 325 -137 524 -145 170 -7 275 5
411 46 174 53 320 137 455 264 291 274 422 662 359 1067 -74 487 -480 890
-975 969 -74 12 -322 13 -392 1z m401 -180 c167 -44 309 -126 432 -249 291
-292 366 -726 189 -1087 -110 -226 -326 -413 -567 -494 -174 -58 -394 -61
-563 -9 -150 47 -336 160 -422 257 -180 204 -268 448 -255 702 18 326 191 612
474 779 84 49 212 97 312 116 107 20 291 13 400 -15z"/>
<path d="M14140 2511 c-309 -84 -498 -398 -422 -699 43 -167 160 -317 302
-385 104 -49 150 -60 260 -60 118 1 203 24 300 83 254 153 349 479 218 750
-73 152 -219 274 -375 315 -76 20 -203 18 -283 -4z m245 -275 c165 -50 278
-219 262 -391 -9 -93 -53 -180 -123 -244 -69 -63 -94 -77 -179 -96 -135 -32
-286 18 -382 125 -77 85 -110 229 -79 348 14 55 57 135 91 167 52 51 125 91
200 109 35 9 158 -2 210 -18z"/>
<path d="M16605 3143 c-16 -2 -77 -15 -135 -30 -117 -30 -306 -120 -401 -190
-256 -189 -430 -479 -474 -788 -36 -246 -1 -470 105 -690 64 -132 116 -208
206 -304 233 -248 543 -381 886 -381 453 0 850 247 1053 655 87 176 122 308
132 495 22 408 -178 804 -522 1032 -55 37 -131 81 -170 98 -89 40 -239 84
-335 99 -65 11 -255 12 -345 4z m361 -172 c205 -42 416 -173 529 -326 17 -22
32 -42 36 -45 17 -15 82 -135 108 -200 200 -504 -45 -1043 -558 -1230 -345
-126 -719 -42 -981 220 -118 117 -187 232 -236 395 -26 84 -28 102 -28 265 0
161 2 181 26 257 96 298 296 514 578 623 160 61 354 76 526 41z"/>
<path d="M16672 2516 c-105 -27 -197 -80 -274 -158 -133 -133 -189 -297 -167
-482 14 -118 59 -222 134 -311 169 -198 457 -256 694 -139 92 46 203 152 248
239 169 323 28 696 -317 839 -59 24 -242 31 -318 12z m202 -271 c33 -9 74 -23
93 -32 61 -29 131 -101 165 -171 31 -62 33 -74 33 -167 0 -90 -3 -106 -28
-155 -56 -108 -114 -161 -218 -199 -110 -39 -209 -33 -316 19 -129 64 -208
193 -208 340 0 255 230 430 479 365z"/>
<path d="M8560 2514 c-161 -42 -307 -158 -380 -302 -50 -101 -62 -161 -58
-291 4 -103 7 -124 36 -192 88 -207 267 -339 492 -365 105 -12 267 33 367 100
52 36 136 120 153 153 8 15 20 36 28 45 8 9 27 54 43 100 54 157 35 332 -54
488 -28 50 -102 132 -152 170 -47 36 -137 80 -193 94 -74 20 -208 20 -282 0z
m204 -270 c182 -47 296 -186 296 -363 0 -138 -54 -242 -167 -318 -238 -160
-560 -21 -604 260 -30 191 87 369 279 427 45 14 130 11 196 -6z"/>
</g>
</svg>
