<?xml version="1.0" standalone="no"?>
<!DOCTYPE svg PUBLIC "-//W3C//DTD SVG 20010904//EN"
 "http://www.w3.org/TR/2001/REC-SVG-20010904/DTD/svg10.dtd">
<svg version="1.0" xmlns="http://www.w3.org/2000/svg"
 width="2048.000000pt" height="1676.000000pt" viewBox="0 0 2048.000000 1676.000000"
 preserveAspectRatio="xMidYMid meet">
<metadata>
Created by potrace 1.16, written by Peter Selinger 2001-2019
</metadata>
<g transform="translate(0.000000,1676.000000) scale(0.100000,-0.100000)"
fill="#000000" stroke="none">
<path d="M7990 15994 c-419 -19 -983 -59 -1670 -119 -669 -58 -844 -68 -1205
-69 -192 0 -449 4 -570 8 -259 10 -391 -3 -548 -54 -170 -54 -278 -119 -393
-234 -87 -87 -160 -197 -204 -304 -131 -323 -115 -818 44 -1323 l24 -77 -29
-43 c-72 -109 -130 -310 -148 -516 -22 -250 -11 -669 29 -1043 11 -102 24
-230 30 -285 5 -55 19 -165 29 -245 21 -150 62 -463 106 -800 69 -534 103
-967 90 -1160 -15 -234 -41 -320 -117 -379 -55 -44 -167 -170 -255 -286 -225
-297 -496 -760 -778 -1331 -124 -250 -133 -282 -89 -310 47 -31 70 -12 136
116 94 182 250 472 297 555 146 254 222 377 350 569 162 244 257 363 406 511
140 139 168 182 198 300 46 180 49 610 7 1045 -27 282 -70 681 -110 1035 -28
242 -67 669 -81 878 -15 230 -6 762 14 867 42 215 74 297 147 374 70 74 72 98
27 251 -107 362 -151 669 -127 887 26 236 87 386 205 503 170 169 432 235 804
204 110 -9 303 -14 576 -13 427 1 531 7 1440 79 916 73 1029 79 1675 79 638 1
632 1 974 -50 195 -29 408 -92 536 -160 141 -74 239 -175 278 -286 47 -134 78
-629 52 -823 -29 -210 -80 -298 -214 -363 -126 -62 -186 -122 -207 -207 -7
-28 -14 -51 -15 -53 0 -1 -46 13 -100 32 -340 117 -832 225 -1279 280 -443 55
-1088 71 -1590 39 -233 -14 -660 -66 -885 -107 -480 -87 -898 -212 -1195 -356
-246 -119 -411 -253 -476 -385 -30 -62 -34 -79 -34 -150 1 -92 23 -151 84
-218 83 -92 193 -141 401 -177 367 -65 954 -18 2100 166 85 13 214 34 285 45
72 12 180 29 240 40 266 46 878 132 1060 149 66 6 158 15 205 21 47 6 182 10
300 11 289 0 436 -27 518 -96 49 -42 44 -75 -20 -139 -29 -29 -78 -69 -110
-90 -52 -34 -272 -148 -379 -195 -167 -75 -703 -274 -1059 -392 -242 -81
-1070 -363 -1155 -393 -860 -308 -1292 -516 -1501 -722 -97 -96 -128 -157
-129 -255 0 -64 4 -82 29 -128 160 -289 636 -322 1516 -106 291 72 477 125
1040 300 650 202 860 265 1160 348 403 111 782 167 932 136 78 -16 133 -43
154 -75 44 -68 -11 -211 -155 -400 -167 -219 -513 -570 -951 -965 -52 -47
-124 -112 -160 -145 -90 -82 -160 -145 -265 -240 -966 -868 -1370 -1294 -1547
-1625 -78 -149 -91 -191 -92 -310 -1 -84 3 -112 18 -140 62 -116 152 -173 303
-192 413 -51 1186 217 2653 920 253 121 359 172 515 247 205 99 363 174 445
213 36 16 144 67 240 112 96 45 231 107 300 137 69 30 143 63 165 73 84 38
281 114 402 155 174 59 322 82 351 53 18 -18 15 -53 -12 -148 -58 -206 -219
-514 -591 -1125 -67 -110 -124 -207 -128 -215 -4 -8 -46 -78 -93 -155 -116
-187 -353 -596 -456 -785 -134 -246 -275 -540 -324 -672 -85 -234 -116 -366
-116 -504 -1 -225 113 -355 327 -371 265 -20 574 186 996 662 222 250 356 422
746 960 651 896 759 1035 939 1210 91 88 173 143 227 152 49 8 79 -25 106
-112 36 -115 44 -198 38 -380 -7 -198 -31 -338 -102 -590 -40 -144 -182 -547
-225 -640 -20 -44 -135 -346 -167 -440 -140 -414 -88 -595 173 -595 95 0 161
17 259 65 162 80 292 211 570 570 272 352 344 435 519 610 391 388 803 584
1341 636 232 23 627 -11 898 -76 57 -14 121 -26 143 -28 33 -2 39 1 42 20 4
26 -3 28 -233 77 -248 53 -416 71 -665 70 -462 -2 -807 -98 -1167 -325 -139
-87 -272 -196 -419 -343 -172 -172 -252 -265 -479 -556 -103 -134 -225 -284
-269 -333 -196 -218 -362 -317 -536 -317 -87 0 -149 30 -166 80 -25 71 -8 210
46 370 28 84 146 393 171 447 10 23 19 45 19 48 0 3 9 25 19 48 43 94 146 380
200 552 102 332 144 620 121 850 -14 147 -24 192 -62 273 -63 135 -181 156
-328 58 -185 -123 -403 -383 -935 -1116 -110 -151 -215 -296 -235 -322 -19
-26 -51 -68 -70 -95 -147 -202 -412 -537 -554 -703 -125 -145 -354 -373 -458
-456 -187 -149 -329 -216 -463 -218 -162 -2 -244 74 -253 234 -5 95 17 214 69
370 21 63 43 124 48 135 71 155 82 185 76 197 -5 7 -5 10 0 6 4 -5 49 74 100
175 93 185 132 258 190 357 17 30 49 87 70 125 47 86 333 565 510 855 72 118
166 276 210 350 43 74 86 147 96 162 11 15 19 29 19 32 0 2 21 40 47 83 80
135 230 444 263 543 36 109 49 219 31 273 -17 49 -60 83 -125 98 -131 29 -420
-58 -936 -283 -63 -27 -137 -60 -165 -73 -27 -13 -75 -34 -105 -48 -72 -32
-174 -80 -535 -252 -276 -132 -396 -189 -655 -312 -52 -25 -126 -60 -165 -78
-38 -18 -110 -52 -160 -75 -95 -44 -395 -182 -480 -220 -27 -12 -63 -28 -80
-36 -84 -37 -468 -199 -525 -221 -602 -230 -905 -313 -1151 -313 -222 0 -309
64 -296 219 16 192 223 486 637 906 223 226 457 449 715 680 49 44 141 127
205 185 123 113 139 127 300 271 58 51 110 98 116 104 6 5 50 46 99 90 187
169 258 237 496 475 135 135 279 286 320 335 41 50 76 92 79 95 48 47 159 226
195 315 38 93 41 208 8 272 -33 61 -96 107 -188 138 -78 27 -84 27 -270 22
-212 -5 -330 -24 -653 -103 -163 -40 -243 -62 -592 -164 -52 -15 -171 -51
-265 -80 -93 -29 -210 -65 -260 -81 -49 -15 -126 -38 -170 -52 -281 -88 -348
-108 -670 -200 -908 -259 -1437 -309 -1662 -156 -43 30 -77 76 -88 121 -22 89
131 238 388 377 116 62 487 232 577 263 25 9 140 52 255 96 244 93 341 127
1110 387 870 295 919 312 1210 428 416 165 661 299 773 421 48 54 82 128 82
181 0 78 -75 172 -176 223 -269 136 -888 102 -2249 -123 -152 -25 -413 -67
-650 -104 -951 -150 -1583 -185 -1890 -106 -170 44 -265 123 -265 219 0 192
400 434 992 602 369 104 752 174 1243 226 286 31 297 32 835 32 556 1 564 1
972 -44 365 -41 827 -130 1083 -210 33 -10 112 -35 176 -54 l115 -36 13 -82
c7 -46 26 -139 43 -208 81 -334 192 -544 323 -609 78 -39 124 -38 226 3 31 13
129 -168 185 -339 59 -183 87 -376 68 -472 -5 -25 -15 -34 -60 -53 -66 -27
-126 -92 -144 -155 -36 -127 29 -319 186 -550 218 -323 454 -515 629 -514 71
1 113 14 154 52 39 34 69 34 163 1 244 -88 677 -381 898 -608 l45 -47 0 -102
c0 -97 2 -106 37 -180 124 -259 468 -645 663 -744 70 -36 142 -46 201 -28 29
8 57 22 64 30 17 20 33 19 126 -9 165 -50 318 -121 455 -212 90 -59 92 -63 81
-121 -11 -63 1 -108 44 -160 37 -45 177 -137 278 -183 34 -15 88 -40 121 -54
235 -107 706 -259 1125 -366 228 -58 326 -78 410 -84 41 -4 282 -11 535 -16
486 -10 642 -18 1005 -51 902 -80 1485 -296 1769 -653 95 -119 178 -317 200
-480 44 -314 -43 -604 -278 -926 -76 -104 -337 -363 -453 -449 -90 -66 -98
-75 -98 -105 0 -36 25 -66 56 -66 23 0 139 78 234 158 459 384 702 817 701
1249 -1 314 -112 600 -315 813 -392 410 -1131 631 -2326 694 -157 9 -463 23
-680 31 -434 18 -430 18 -750 107 -521 144 -939 296 -1215 441 -109 57 -117
65 -104 108 9 29 8 47 -5 93 -14 48 -29 69 -84 125 -164 164 -599 368 -807
379 -70 3 -86 1 -128 -21 l-47 -24 -63 47 c-158 121 -395 412 -473 580 -20 44
-21 46 -3 75 54 87 -5 213 -175 379 -287 277 -722 564 -988 652 -113 37 -242
39 -308 5 -25 -13 -53 -30 -62 -38 -16 -14 -22 -12 -66 16 -46 29 -181 159
-234 226 -48 60 -117 161 -157 232 -39 69 -87 181 -79 187 1 1 23 14 48 28 87
50 130 117 156 239 60 280 -105 853 -308 1071 -91 97 -178 129 -280 103 -57
-14 -61 -14 -74 2 -31 40 -112 281 -139 411 -10 50 -16 52 260 -85 217 -108
440 -247 635 -396 58 -45 110 -86 117 -91 331 -295 540 -548 738 -893 59 -103
76 -118 94 -86 23 42 -206 422 -392 652 -82 100 -133 155 -277 296 -301 295
-682 546 -1142 753 l-68 31 0 43 0 43 78 39 c154 79 272 232 320 417 41 156
47 209 46 444 0 334 -32 597 -87 725 -163 379 -579 584 -1342 661 -154 16
-288 21 -580 23 -209 2 -418 2 -465 0z"/>
<path d="M3320 7284 c-367 -28 -674 -93 -876 -184 -370 -167 -749 -568 -1052
-1115 -318 -573 -527 -1250 -609 -1970 -28 -244 -25 -777 5 -1013 83 -645 293
-1192 630 -1637 93 -123 95 -125 128 -125 35 0 64 26 64 59 0 12 -24 56 -54
99 -577 827 -725 1961 -415 3187 162 637 456 1260 797 1685 167 210 372 398
528 485 188 107 427 166 789 196 149 12 575 6 720 -10 304 -35 373 -44 475
-62 157 -27 428 -86 508 -111 534 -159 839 -307 1025 -495 107 -109 142 -180
142 -289 -1 -60 -6 -82 -34 -139 -34 -68 -122 -179 -195 -245 -22 -19 -47 -42
-55 -51 -9 -9 -45 -38 -81 -66 -322 -246 -882 -498 -1575 -709 -423 -128
-1172 -309 -1690 -409 -104 -20 -246 -47 -315 -60 -69 -13 -190 -36 -270 -50
-569 -103 -604 -111 -657 -158 -174 -153 -44 -495 420 -1107 133 -175 170
-223 177 -230 3 -3 49 -57 102 -120 197 -237 344 -396 588 -640 214 -214 253
-250 403 -373 126 -104 192 -149 288 -197 70 -36 94 -35 121 1 32 42 17 68
-65 116 -121 70 -246 181 -508 450 -58 59 -141 149 -184 198 -43 50 -90 104
-104 120 -355 407 -751 950 -923 1267 -67 123 -140 300 -128 312 5 4 98 20
435 72 272 41 591 93 710 115 688 124 1102 215 1590 351 742 206 1300 439
1690 706 151 103 237 175 340 284 217 229 301 449 260 680 -55 313 -349 589
-860 809 -391 167 -957 302 -1490 354 -162 16 -671 28 -795 19z"/>
<path d="M8115 5075 c-249 -45 -446 -224 -538 -488 -31 -90 -32 -96 -32 -262
1 -182 12 -258 62 -410 93 -286 286 -512 536 -631 158 -75 317 -104 572 -104
268 0 445 -32 610 -111 268 -128 422 -334 492 -659 28 -131 25 -375 -6 -500
-36 -146 -75 -240 -149 -360 -176 -285 -450 -445 -798 -465 -701 -40 -1321
474 -1425 1184 -7 54 -10 149 -6 269 4 156 9 203 30 282 13 52 23 98 20 103
-14 23 -46 -37 -91 -168 -37 -110 -59 -216 -72 -354 -11 -122 -7 -201 22 -366
113 -653 665 -1163 1337 -1236 301 -33 589 20 816 150 408 234 665 697 665
1201 0 386 -125 718 -359 950 -182 180 -389 282 -675 332 -104 18 -159 20
-384 19 -296 -1 -363 7 -495 64 -181 78 -310 211 -400 411 -63 139 -89 244
-102 409 -16 197 80 407 237 517 130 93 296 119 493 78 102 -20 210 -53 280
-85 17 -7 52 -23 78 -34 74 -32 262 -138 369 -208 53 -34 101 -63 107 -63 23
0 9 21 -46 65 -32 26 -75 61 -96 78 -169 140 -427 287 -606 347 -172 57 -308
71 -446 45z"/>
<path d="M6523 4968 c-25 -12 -48 -67 -124 -299 -216 -661 -411 -1502 -450
-1940 -6 -68 -14 -164 -19 -214 -4 -49 -6 -162 -4 -250 10 -445 105 -685 313
-788 58 -28 74 -31 155 -32 150 0 232 47 195 113 -15 28 -19 29 -147 53 -201
38 -298 248 -306 659 -7 396 62 908 220 1620 41 185 171 710 194 785 28 88 64
232 62 249 -2 39 -51 62 -89 44z"/>
<path d="M11776 4945 c-12 -9 -27 -50 -42 -117 -184 -774 -284 -1515 -288
-2113 -1 -263 9 -347 52 -435 15 -31 22 -35 59 -38 37 -3 43 0 56 25 27 54 38
160 43 443 3 157 7 308 10 335 l5 50 92 62 c253 169 487 230 647 167 194 -75
345 -295 365 -529 21 -250 -104 -601 -347 -974 -27 -42 -48 -87 -48 -101 0
-31 28 -60 57 -60 22 0 81 44 126 93 172 190 261 318 345 497 87 184 123 334
123 509 0 253 -78 440 -260 621 -68 68 -105 95 -177 132 -118 59 -179 72 -324
65 -97 -4 -128 -10 -200 -36 -111 -42 -197 -89 -293 -163 -43 -33 -81 -58 -85
-56 -20 8 73 811 159 1380 30 196 31 209 15 233 -19 28 -59 33 -90 10z"/>
<path d="M18622 4925 c-21 -27 -120 -318 -202 -595 -71 -240 -81 -278 -154
-575 -128 -522 -178 -806 -217 -1245 -23 -255 3 -578 60 -743 81 -235 238
-359 435 -344 102 8 143 22 161 57 19 36 19 40 -3 67 -13 18 -34 25 -96 34
-44 6 -101 21 -126 34 -260 132 -295 717 -106 1765 62 344 213 984 331 1405
30 108 31 127 7 148 -27 25 -67 21 -90 -8z"/>
<path d="M7172 4753 c-29 -25 -151 -395 -281 -853 -29 -103 -118 -461 -127
-510 -3 -14 -12 -54 -20 -90 -40 -173 -86 -426 -114 -625 -26 -182 -32 -264
-37 -475 -8 -371 14 -529 98 -708 50 -103 121 -178 215 -222 59 -29 77 -32
153 -32 120 0 201 35 201 88 0 36 -35 61 -93 67 -105 13 -159 36 -210 89 -91
94 -139 244 -157 495 -35 492 130 1471 429 2556 23 82 41 161 41 176 0 53 -57
79 -98 44z"/>
<path d="M10730 3185 c-152 -42 -271 -145 -345 -299 -124 -256 -130 -570 -14
-781 107 -196 327 -349 559 -391 259 -46 507 12 647 151 34 34 65 74 69 89 13
53 -42 74 -94 37 -100 -71 -309 -102 -484 -71 -89 16 -213 56 -282 93 -86 46
-186 148 -224 227 -69 146 -70 352 -2 545 44 128 134 216 254 251 81 23 220
20 316 -5 98 -27 136 -27 150 -1 7 14 8 26 0 39 -12 23 -96 64 -200 98 -97 32
-268 40 -350 18z"/>
<path d="M4435 3149 c-484 -62 -885 -427 -1007 -916 -18 -74 -22 -117 -22
-273 0 -173 2 -192 28 -290 28 -101 79 -234 109 -282 84 -135 125 -187 211
-273 240 -238 525 -357 856 -357 423 1 818 220 1027 572 171 286 218 639 128
961 -50 179 -162 374 -289 502 -277 279 -648 406 -1041 356z m230 -175 c247
-23 497 -181 650 -414 107 -162 155 -322 155 -513 -1 -234 -70 -417 -231 -605
-132 -156 -309 -263 -510 -308 -100 -23 -128 -26 -229 -21 -167 9 -311 50
-434 124 -221 135 -368 331 -432 579 -53 204 -28 445 65 633 57 116 93 165
195 266 101 99 200 163 331 213 97 37 260 63 340 56 17 -2 61 -6 100 -10z"/>
<path d="M4452 2550 c-49 -10 -140 -51 -192 -86 -164 -111 -272 -330 -256
-519 21 -249 178 -447 415 -524 78 -25 218 -28 301 -6 259 69 440 301 440 565
0 149 -58 293 -162 401 -71 73 -115 105 -203 146 -53 24 -73 27 -180 29 -66 2
-139 -1 -163 -6z m212 -276 c115 -29 203 -103 254 -212 23 -49 27 -70 27 -152
0 -82 -4 -103 -27 -153 -64 -136 -185 -217 -335 -225 -162 -9 -295 68 -368
212 -38 75 -40 83 -39 170 0 102 17 151 79 236 86 117 247 166 409 124z"/>
<path d="M14088 3140 c-239 -41 -469 -159 -638 -329 -166 -167 -251 -316 -316
-552 -27 -97 -29 -116 -29 -284 0 -165 3 -189 28 -285 86 -321 286 -583 573
-752 78 -46 168 -81 286 -114 114 -31 335 -43 468 -25 508 68 912 467 996 981
39 237 -1 511 -103 714 -89 177 -241 351 -397 456 -139 93 -319 165 -476 190
-74 11 -322 11 -392 0z m401 -180 c167 -44 309 -125 432 -249 290 -291 366
-727 189 -1087 -142 -291 -446 -504 -760 -534 -254 -24 -491 43 -684 194 -193
151 -308 347 -352 599 -57 323 73 667 333 884 123 102 285 178 440 208 108 20
292 13 402 -15z"/>
<path d="M14140 2511 c-259 -71 -440 -306 -440 -571 0 -240 176 -477 410 -552
89 -28 249 -28 338 0 341 109 506 490 350 812 -73 152 -219 274 -375 315 -76
20 -203 18 -283 -4z m245 -275 c165 -50 278 -219 262 -389 -15 -162 -129 -296
-289 -338 -178 -48 -367 40 -450 209 -30 61 -33 74 -33 162 0 88 3 101 33 162
51 103 135 175 241 205 55 16 166 10 236 -11z"/>
<path d="M16600 3143 c-19 -2 -78 -16 -130 -30 -581 -156 -952 -707 -880
-1303 21 -171 98 -373 200 -528 56 -84 174 -208 263 -275 331 -252 778 -318
1160 -171 375 144 661 486 743 889 25 123 26 357 1 475 -82 384 -352 710 -709
855 -164 67 -264 87 -448 90 -91 2 -181 1 -200 -2z m366 -172 c344 -71 613
-332 711 -690 36 -131 38 -343 4 -466 -81 -300 -300 -536 -600 -645 -345 -126
-719 -42 -981 220 -118 117 -187 232 -236 395 -26 84 -28 102 -28 265 0 161 2
181 26 257 96 298 296 514 578 623 160 61 354 76 526 41z"/>
<path d="M16668 2515 c-100 -25 -194 -80 -272 -158 -131 -132 -189 -303 -166
-484 22 -166 105 -306 235 -397 89 -62 147 -87 246 -103 183 -31 359 27 494
161 305 305 195 803 -215 970 -61 25 -243 31 -322 11z m265 -290 c90 -36 158
-98 199 -183 31 -62 33 -74 33 -167 -1 -90 -4 -106 -29 -155 -56 -109 -113
-161 -217 -199 -110 -39 -209 -33 -316 19 -223 110 -279 411 -111 595 48 53
124 99 191 116 60 15 177 3 250 -26z"/>
<path d="M8560 2514 c-161 -42 -307 -158 -380 -302 -50 -101 -62 -161 -58
-291 4 -103 7 -124 36 -192 88 -207 267 -339 492 -365 105 -12 267 33 366 100
211 143 307 419 228 654 -42 127 -113 229 -209 302 -47 36 -139 81 -192 95
-71 19 -210 18 -283 -1z m203 -270 c196 -51 305 -194 295 -388 -7 -133 -60
-225 -171 -297 -238 -154 -555 -13 -598 266 -35 224 138 429 365 434 26 1 75
-6 109 -15z"/>
</g>
</svg>
